<?xml version="1.0" encoding="UTF-8" standalone="no"?>
<svg
   width="8"
   height="5"
   viewBox="0 0 8 5"
   fill="none"
   version="1.1"
   id="svg12"
   sodipodi:docname="arrow-down.svg"
   inkscape:version="1.2.2 (732a01da63, 2022-12-09)"
   xmlns:inkscape="http://www.inkscape.org/namespaces/inkscape"
   xmlns:sodipodi="http://sodipodi.sourceforge.net/DTD/sodipodi-0.dtd"
   xmlns="http://www.w3.org/2000/svg"
   xmlns:svg="http://www.w3.org/2000/svg">
  <defs
     id="defs16" />
  <sodipodi:namedview
     id="namedview14"
     pagecolor="#505050"
     bordercolor="#eeeeee"
     borderopacity="1"
     inkscape:showpageshadow="0"
     inkscape:pageopacity="0"
     inkscape:pagecheckerboard="0"
     inkscape:deskcolor="#505050"
     showgrid="false"
     inkscape:zoom="164.2"
     inkscape:cx="3.8428745"
     inkscape:cy="2.6644336"
     inkscape:window-width="1920"
     inkscape:window-height="986"
     inkscape:window-x="-11"
     inkscape:window-y="1609"
     inkscape:window-maximized="1"
     inkscape:current-layer="svg12" />
  <path
     d="M 6.9978597,0.77765193 C 6.889534,0.668098 6.7430018,0.60660639 6.5902754,0.60660639 c -0.1527364,0 -0.2992685,0.0614916 -0.4075844,0.17104554 L 4.1071873,2.8599127 2.0605936,0.77765193 C 1.9522678,0.668098 1.8057456,0.60660639 1.6530092,0.60660639 c -0.1527363,0 -0.2992685,0.0614916 -0.4075843,0.17104554 C 1.1912323,0.83233411 1.148229,0.89739026 1.118875,0.96907232 1.089524,1.0407463 1.0744129,1.1176336 1.0744129,1.195277 c 0,0.077654 0.015111,0.1545408 0.044462,0.2262148 0.029354,0.071674 0.072357,0.1367332 0.1265499,0.1914163 l 2.4512841,2.493999 c 0.053747,0.055137 0.1176915,0.0989 0.1881379,0.1287571 0.070456,0.029867 0.1460168,0.045235 0.2223404,0.045235 0.076324,0 0.151884,-0.015367 0.2223404,-0.045235 0.070446,-0.029857 0.1343913,-0.07362 0.1881379,-0.1287571 l 2.4801941,-2.493999 c 0.054183,-0.054683 0.097196,-0.1197423 0.1265419,-0.1914163 0.029356,-0.071674 0.04447,-0.1485612 0.04447,-0.2262148 0,-0.077643 -0.015114,-0.1545306 -0.04447,-0.22620468 C 7.0950556,0.89739026 7.0520424,0.83233411 6.9978597,0.77765193 Z"
     fill="#F6F8FA"
     id="path2947"
     style="fill:#00ff00;stroke-width:0.999684" />
</svg>
