<svg width="8" height="12" viewBox="0 0 8 12" fill="none" xmlns="http://www.w3.org/2000/svg">
<path d="M6.33333 3.95768H7.5C7.5 2.30277 5.89292 1.54793 4.58333 1.3741V0.166016H3.41667V1.3741C2.10708 1.54793 0.5 2.30277 0.5 3.95768C0.5 5.53618 2.05517 6.35693 3.41667 6.54185V9.44102C2.572 9.2946 1.66667 8.84368 1.66667 8.04102H0.5C0.5 9.55127 1.91458 10.4438 3.41667 10.6287V11.8327H4.58333V10.6252C5.89292 10.4513 7.5 9.69593 7.5 8.04102C7.5 6.3861 5.89292 5.63127 4.58333 5.45743V2.55768C5.35917 2.6971 6.33333 3.1066 6.33333 3.95768V3.95768ZM1.66667 3.95768C1.66667 3.1066 2.64083 2.6971 3.41667 2.55768V5.3571C2.61692 5.20952 1.66667 4.7726 1.66667 3.95768ZM6.33333 8.04102C6.33333 8.8921 5.35917 9.3016 4.58333 9.44102V6.64102C5.35917 6.78043 6.33333 7.18993 6.33333 8.04102V8.04102Z" fill="#F6F8FA"/>
</svg>
