<svg width="12" height="12" viewBox="0 0 12 12" fill="none" xmlns="http://www.w3.org/2000/svg">
<path d="M7.75 9.79167C7.05655 9.7923 6.37629 9.60216 5.78367 9.24206C5.19105 8.88196 4.7089 8.36577 4.39 7.75H7.75V6.58334H4.005C3.97583 6.39084 3.95833 6.19834 3.95833 6C3.95833 5.80167 3.97583 5.60917 4.005 5.41667H7.75V4.25H4.39C4.70947 3.63469 5.19174 3.11891 5.78424 2.75888C6.37673 2.39886 7.0567 2.20842 7.75 2.20834C8.68917 2.20834 9.5525 2.5525 10.2175 3.12417L11.25 2.09167C10.2895 1.22686 9.04247 0.748835 7.75 0.750002C5.46333 0.750002 3.52667 2.21417 2.80333 4.25H0.75V5.41667H2.535C2.48776 5.80412 2.48776 6.19588 2.535 6.58334H0.75V7.75H2.80333C3.52667 9.78584 5.46333 11.25 7.75 11.25C9.0975 11.25 10.3225 10.7425 11.25 9.90834L10.2117 8.87584C9.5525 9.4475 8.695 9.79167 7.75 9.79167Z" fill="#F6F8FA"/>
</svg>
