<svg width="12" height="12" viewBox="0 0 12 12" fill="none" xmlns="http://www.w3.org/2000/svg">
<path d="M10.8059 4.60158H6.8416C7.15192 3.84091 7.69793 1.98592 6.3166 0.683917C6.1276 0.504246 5.87326 0.40625 5.6026 0.40625C5.19892 0.40625 4.8676 0.735244 4.8676 1.14124C4.8676 2.16324 4.6226 3.18291 4.15827 4.09291L3.64727 5.09391C3.56793 5.24792 3.1666 5.35758 2.87493 5.40191V11.0066H3.80593C3.9786 11.3589 4.34493 11.5922 4.74626 11.5922H9.69526C10.2739 11.5922 10.7429 11.1209 10.7429 10.5422C10.7429 10.3113 10.6683 10.0989 10.5423 9.92625C10.9949 9.81192 11.3286 9.39891 11.3286 8.91125C11.3286 8.63592 11.2236 8.38625 11.0463 8.19957C11.3706 8.02225 11.5923 7.67691 11.5923 7.28024C11.5923 7.00724 11.4849 6.75758 11.3099 6.57091C11.6319 6.39124 11.8536 6.04591 11.8536 5.64924C11.8536 5.07292 11.3823 4.60158 10.8059 4.60158ZM1.03612 11.5292H2.13513C2.26346 11.5292 2.36846 11.4266 2.36846 11.2959V4.83491C2.36846 4.70658 2.26346 4.60158 2.13513 4.60158H0.380457C0.315117 4.60158 0.252126 4.62958 0.207792 4.67858C0.163459 4.72759 0.142452 4.79291 0.147123 4.85825L0.805125 11.3193C0.816789 11.4382 0.917121 11.5292 1.03612 11.5292Z" fill="#09AC7B"/>
</svg>
