<svg width="14" height="24" viewBox="0 0 14 24" fill="none" xmlns="http://www.w3.org/2000/svg">
<path d="M3.9998 0.632398L0.566471 14.2657C0.433138 14.7324 0.866471 15.1657 1.33314 15.0324L6.86647 13.6991C7.33314 13.5991 7.76647 13.9991 7.63314 14.4657L5.46647 22.9991C5.26647 23.7324 6.33314 24.1324 6.66647 23.4324L13.3998 9.49906C13.6331 8.99906 13.1665 8.4324 12.6331 8.6324L7.86647 9.79906C7.36647 9.96573 6.8998 9.46573 7.06647 8.96573L9.8998 1.39906C9.9998 1.0324 9.73314 0.632398 9.33314 0.565731L4.66647 0.165731C4.36647 0.132398 4.06647 0.332398 3.9998 0.632398Z" fill="#A5A9B4"/>
</svg>
