<svg width="12" height="12" viewBox="0 0 12 12" fill="none" xmlns="http://www.w3.org/2000/svg">
<path d="M0.26623 4.15217C0.528707 3.34662 0.959195 2.60596 1.52923 1.97917C1.57643 1.92742 1.63788 1.89078 1.70586 1.87388C1.77383 1.85697 1.84529 1.86055 1.91123 1.88417L3.27123 2.36817C3.36784 2.40242 3.47071 2.41534 3.57279 2.40605C3.67486 2.39677 3.77372 2.36549 3.86256 2.31437C3.9514 2.26325 4.02812 2.1935 4.08744 2.10992C4.14677 2.02634 4.18729 1.9309 4.20623 1.83017L4.46623 0.41417C4.47891 0.345345 4.51171 0.281823 4.56048 0.231631C4.60925 0.181438 4.6718 0.146827 4.74023 0.13217C5.57099 -0.0440566 6.42947 -0.0440566 7.26023 0.13217C7.40023 0.16217 7.50823 0.27317 7.53423 0.41417L7.79423 1.83017C7.81286 1.93107 7.85319 2.02671 7.91244 2.11048C7.97169 2.19425 8.04843 2.26414 8.13736 2.31531C8.2263 2.36648 8.32529 2.39771 8.42748 2.40684C8.52968 2.41596 8.63264 2.40277 8.72923 2.36817L10.0892 1.88417C10.1552 1.86055 10.2266 1.85697 10.2946 1.87388C10.3626 1.89078 10.424 1.92742 10.4712 1.97917C11.0402 2.60617 11.4712 3.34617 11.7332 4.15217C11.7549 4.21877 11.7562 4.29032 11.7369 4.35765C11.7177 4.42499 11.6788 4.48505 11.6252 4.53017L10.5232 5.46117C10.4448 5.52716 10.3817 5.60951 10.3384 5.70244C10.2952 5.79538 10.2727 5.89665 10.2727 5.99917C10.2727 6.10169 10.2952 6.20296 10.3384 6.2959C10.3817 6.38883 10.4448 6.47118 10.5232 6.53717L11.6252 7.46817C11.7352 7.56117 11.7772 7.71017 11.7332 7.84617C11.4711 8.65165 11.0409 9.3923 10.4712 10.0192C10.424 10.0709 10.3626 10.1076 10.2946 10.1245C10.2266 10.1414 10.1552 10.1378 10.0892 10.1142L8.72923 9.63017C8.63262 9.59592 8.52975 9.583 8.42767 9.59229C8.3256 9.60157 8.22674 9.63285 8.1379 9.68397C8.04906 9.73509 7.97235 9.80483 7.91302 9.88842C7.85369 9.972 7.81317 10.0674 7.79423 10.1682L7.53423 11.5842C7.5216 11.6532 7.4887 11.7169 7.43972 11.7671C7.39074 11.8173 7.3279 11.8518 7.25923 11.8662C6.42881 12.0424 5.57065 12.0424 4.74023 11.8662C4.67162 11.8517 4.60885 11.8172 4.55989 11.7669C4.51093 11.7167 4.47798 11.6531 4.46523 11.5842L4.20623 10.1682C4.1876 10.0673 4.14727 9.97163 4.08802 9.88786C4.02877 9.80409 3.95203 9.7342 3.8631 9.68303C3.77416 9.63186 3.67517 9.60063 3.57298 9.5915C3.47078 9.58237 3.36782 9.59557 3.27123 9.63017L1.91123 10.1142C1.84529 10.1378 1.77383 10.1414 1.70586 10.1245C1.63788 10.1076 1.57643 10.0709 1.52923 10.0192C0.959554 9.39229 0.529411 8.65164 0.26723 7.84617C0.245588 7.77957 0.244305 7.70802 0.263544 7.64069C0.282782 7.57335 0.321669 7.51329 0.37523 7.46817L1.47723 6.53717C1.55553 6.47108 1.61846 6.3887 1.66163 6.29578C1.7048 6.20286 1.72717 6.10163 1.72717 5.99917C1.72717 5.89671 1.7048 5.79548 1.66163 5.70256C1.61846 5.60963 1.55553 5.52725 1.47723 5.46117L0.37523 4.53017C0.321669 4.48505 0.282782 4.42499 0.263544 4.35765C0.244305 4.29032 0.245588 4.21877 0.26723 4.15217H0.26623ZM4.24923 5.99917C4.24923 6.4633 4.43361 6.90842 4.76179 7.23661C5.08998 7.5648 5.5351 7.74917 5.99923 7.74917C6.46336 7.74917 6.90848 7.5648 7.23667 7.23661C7.56486 6.90842 7.74923 6.4633 7.74923 5.99917C7.74923 5.53504 7.56486 5.08992 7.23667 4.76173C6.90848 4.43354 6.46336 4.24917 5.99923 4.24917C5.5351 4.24917 5.08998 4.43354 4.76179 4.76173C4.43361 5.08992 4.24923 5.53504 4.24923 5.99917Z" fill="#F6F8FA"/>
</svg>
