<svg width="19" height="14" viewBox="0 0 19 14" fill="none" xmlns="http://www.w3.org/2000/svg">
<path d="M4.625 0H3.96429C1.77732 0 0 1.77732 0 3.96429V5.28571H4.625V0ZM8.73464 3.55464C8.98571 3.2375 9.51429 3.2375 9.76536 3.55464L11.1529 5.28571H12.5536V0H5.94643V5.28571H7.34714L8.73464 3.55464ZM14.5357 0H13.875V5.28571H18.5V3.96429C18.5 1.77732 16.7227 0 14.5357 0ZM11.1529 6.60714L9.76536 8.33821C9.63982 8.49679 9.44821 8.58929 9.25 8.58929C9.05179 8.58929 8.86018 8.49679 8.73464 8.33821L7.34714 6.60714H0V11.8929C0 12.6196 0.594643 13.2143 1.32143 13.2143H17.1786C17.9054 13.2143 18.5 12.6196 18.5 11.8929V6.60714H11.1529Z" fill="#A5A9B4"/>
</svg>
