<?xml version="1.0" encoding="UTF-8" standalone="no"?>
<svg
   width="24"
   height="24"
   viewBox="0 0 24 24"
   fill="none"
   version="1.1"
   id="svg16"
   sodipodi:docname="star-50p.svg"
   inkscape:version="1.2.2 (732a01da63, 2022-12-09)"
   xmlns:inkscape="http://www.inkscape.org/namespaces/inkscape"
   xmlns:sodipodi="http://sodipodi.sourceforge.net/DTD/sodipodi-0.dtd"
   xmlns="http://www.w3.org/2000/svg"
   xmlns:svg="http://www.w3.org/2000/svg">
  <defs
     id="defs20" />
  <sodipodi:namedview
     id="namedview18"
     pagecolor="#505050"
     bordercolor="#eeeeee"
     borderopacity="1"
     inkscape:showpageshadow="0"
     inkscape:pageopacity="0"
     inkscape:pagecheckerboard="0"
     inkscape:deskcolor="#505050"
     showgrid="false"
     inkscape:zoom="34.208333"
     inkscape:cx="11.985384"
     inkscape:cy="12.014616"
     inkscape:window-width="1920"
     inkscape:window-height="986"
     inkscape:window-x="-11"
     inkscape:window-y="1609"
     inkscape:window-maximized="1"
     inkscape:current-layer="svg16" />
  <path
     style="color:#000000;fill:#7a59ff;-inkscape-stroke:none"
     d="m 12.332031,1.6796875 c -0.36495,-0.1789779 -0.814519,-0.027626 -1,0.3339844 l -0.002,0.00195 -2.6621092,5.3964844 -5.9511719,0.8652344 h -0.00195 C 2.553567,8.3007757 2.4026988,8.3770191 2.2890625,8.4921875 l -0.00195,0.00195 -0.00195,0.00195 C 2.1475855,8.6385073 2.0735426,8.8313236 2.0761719,9.0292969 c 0.00311,0.1982062 0.084585,0.3889401 0.2265625,0.5273437 l 0.021484,0.021484 h 0.00195 l 4.28125,4.175781 -1.0175782,5.927735 c -1.128e-4,6.51e-4 1.112e-4,0.0013 0,0.002 v 0.002 0.0039 c -0.021969,0.135418 -0.00664,0.27333 0.044922,0.400391 0.052656,0.129758 0.1406766,0.24205 0.2539063,0.324218 0.1132661,0.08206 0.2480043,0.132709 0.3867187,0.142579 0.1384748,0.0099 0.2764648,-0.02065 0.4003906,-0.08594 L 12,17.671875 l 5.324219,2.798828 c 0.148347,0.07863 0.309422,0.105019 0.474609,0.07617 0.401498,-0.06921 0.680538,-0.463995 0.611328,-0.865234 l -0.002,-0.01953 -1.015625,-5.908203 4.283203,-4.1777341 0.02148,-0.019531 -0.02344,0.017578 c -0.0036,-0.00413 -0.324219,-0.375 -0.324219,-0.375 l 0.34961,0.3574218 C 21.81509,9.4428789 21.892441,9.2907202 21.916016,9.1289063 v -0.00195 c 0.0621,-0.4021493 -0.227807,-0.7888378 -0.63086,-0.8496093 h -0.002 l -5.949219,-0.8652344 -2.658203,-5.3867188 -0.002,-0.00586 C 12.601358,1.8720734 12.481309,1.752428 12.333984,1.6796875 Z m -0.558593,0.7734375 0.0059,0.011719 c -8.72e-4,-0.00168 -0.0031,-0.0022 -0.0039,-0.00391 z M 12,2.9140625 l 2.435547,4.9394531 0.234375,0.4726563 0.519531,0.074219 5.449219,0.7929688 -3.94336,3.8437496 -0.376953,0.367188 0.08984,0.519531 0.929688,5.425781 -4.871094,-2.5625 L 12,16.542969 11.535156,16.787109 6.6621094,19.349609 7.59375,13.923828 7.6816406,13.404297 7.3046875,13.037109 3.3613281,9.1933594 8.8105469,8.4003906 9.3320313,8.3261719 9.5644531,7.8535156 Z"
     id="path12" />
  <path
     d="M12 17V2C11.1667 3.66667 9.5 7.1 9.5 7.5C9.5 7.9 5.16667 8.66667 3 9L7 13.5L6.5 20L12 17Z"
     fill="#7A59FF"
     id="path14" />
</svg>
