<svg width="20" height="14" viewBox="0 0 20 14" fill="none" xmlns="http://www.w3.org/2000/svg">
<path d="M19.5804 2.16869C19.4642 1.75353 19.2428 1.37538 18.9377 1.07087C18.6325 0.766365 18.2539 0.545811 17.8385 0.430567C16.2791 0.0136918 10.0104 0.0136919 10.0104 0.0136919C10.0104 0.0136919 3.75348 0.00369179 2.17785 0.430567C1.7631 0.546317 1.38523 0.767102 1.08075 1.07158C0.776265 1.37606 0.55548 1.75394 0.43973 2.16869C0.143605 3.76508 -0.00224148 5.38571 0.00410474 7.00932C0.00121531 8.62511 0.147039 10.2377 0.43973 11.8268C0.555854 12.2418 0.776705 12.6199 1.08108 12.925C1.38545 13.23 1.76313 13.4517 2.17785 13.5687C3.73723 13.9856 10.0104 13.9856 10.0104 13.9856C10.0104 13.9856 16.2635 13.9856 17.8385 13.5687C18.2539 13.4522 18.6323 13.2307 18.9373 12.9257C19.2424 12.6206 19.4638 12.2422 19.5804 11.8268C19.8672 10.2387 20.0072 8.62369 19.9972 7.00932C20.0072 5.38432 19.8704 3.76682 19.5804 2.16869ZM8.00785 10.0012V4.00432L13.226 7.00932L8.00785 10.0012Z" fill="#F6F8FA"/>
</svg>
