<svg width="22" height="22" viewBox="0 0 22 22" fill="none" xmlns="http://www.w3.org/2000/svg">
<path d="M11.0001 0.65625C8.25743 0.659334 5.62797 1.75022 3.68861 3.68959C1.74925 5.62895 0.658358 8.25841 0.655273 11.0011C0.659936 13.7433 1.75133 16.3718 3.69035 18.3108C5.62938 20.2498 8.25791 21.3412 11.0001 21.3459C13.7437 21.3459 16.375 20.256 18.315 18.316C20.255 16.3759 21.3449 13.7447 21.3449 11.0011C21.3449 8.25746 20.255 5.62621 18.315 3.68618C16.375 1.74615 13.7437 0.65625 11.0001 0.65625ZM17.2923 16.9703C16.7113 15.7985 15.8143 14.8125 14.7027 14.1233C13.5911 13.4341 12.309 13.0693 11.0011 13.07C9.69314 13.0707 8.41144 13.4369 7.30056 14.1273C6.18968 14.8177 5.29382 15.8047 4.71405 16.9771C3.16707 15.3729 2.30505 13.2297 2.31045 11.0011C2.31045 8.69644 3.22596 6.48619 4.85559 4.85656C6.48521 3.22694 8.69546 2.31142 11.0001 2.31142C13.3047 2.31142 15.515 3.22694 17.1446 4.85656C18.7742 6.48619 19.6898 8.69644 19.6898 11.0011C19.6949 13.2264 18.8353 15.3667 17.2923 16.9703ZM11.0001 4.79418C10.2635 4.79418 9.54351 5.0126 8.93108 5.42181C8.31865 5.83103 7.84132 6.41266 7.55945 7.09315C7.27758 7.77365 7.20382 8.52245 7.34752 9.24486C7.49122 9.96727 7.84591 10.6309 8.36674 11.1517C8.88757 11.6725 9.55115 12.0272 10.2736 12.1709C10.996 12.3146 11.7448 12.2408 12.4253 11.959C13.1058 11.6771 13.6874 11.1998 14.0966 10.5873C14.5058 9.97491 14.7242 9.25488 14.7242 8.51832C14.7242 8.02926 14.6279 7.54499 14.4408 7.09315C14.2536 6.64132 13.9793 6.23077 13.6335 5.88496C13.2876 5.53914 12.8771 5.26482 12.4253 5.07766C11.9734 4.89051 11.4892 4.79418 11.0001 4.79418Z" fill="#7A59FF"/>
</svg>
