<svg width="8" height="5" viewBox="0 0 8 5" fill="none" xmlns="http://www.w3.org/2000/svg">
<path d="M6.91715 0.849316C6.80785 0.74067 6.66 0.679688 6.5059 0.679688C6.35179 0.679688 6.20394 0.74067 6.09465 0.849316L4.00048 2.91432L1.93548 0.849316C1.82618 0.74067 1.67834 0.679688 1.52423 0.679688C1.37012 0.679688 1.22227 0.74067 1.11298 0.849316C1.0583 0.903545 1.01491 0.968062 0.985292 1.03915C0.955677 1.11023 0.94043 1.18648 0.94043 1.26348C0.94043 1.34049 0.955677 1.41674 0.985292 1.48782C1.01491 1.5589 1.0583 1.62342 1.11298 1.67765L3.58631 4.15098C3.64054 4.20566 3.70506 4.24906 3.77614 4.27867C3.84723 4.30829 3.92347 4.32353 4.00048 4.32353C4.07749 4.32353 4.15373 4.30829 4.22482 4.27867C4.2959 4.24906 4.36042 4.20566 4.41465 4.15098L6.91715 1.67765C6.97182 1.62342 7.01522 1.5589 7.04483 1.48782C7.07445 1.41674 7.0897 1.34049 7.0897 1.26348C7.0897 1.18648 7.07445 1.11023 7.04483 1.03915C7.01522 0.968062 6.97182 0.903545 6.91715 0.849316Z" fill="#F6F8FA"/>
</svg>
