<svg width="20" height="20" viewBox="0 0 20 20" fill="none" xmlns="http://www.w3.org/2000/svg">
<path d="M19.134 8.86987L17.8245 7.56043C17.5135 7.24939 17.2591 6.63379 17.2591 6.19459V4.34299C17.2591 3.46339 16.5396 2.74315 15.659 2.74315H13.8064C13.3665 2.74315 12.7516 2.48827 12.4408 2.17747L11.1314 0.868031C10.5098 0.244511 9.49099 0.244511 8.86915 0.868031L7.55971 2.17747C7.24867 2.48827 6.63307 2.74315 6.19387 2.74315H4.34251C3.46267 2.74315 2.74243 3.46339 2.74243 4.34299V6.19459C2.74243 6.63379 2.48779 7.24939 2.17675 7.56043L0.867311 8.86987C0.244751 9.49171 0.244751 10.5103 0.867311 11.1323L2.17675 12.4415C2.48779 12.7526 2.74243 13.3682 2.74243 13.8071V15.659C2.74243 16.5386 3.46267 17.2591 4.34251 17.2591H6.19387C6.63379 17.2591 7.24867 17.5137 7.55971 17.8245L8.86915 19.1337C9.49099 19.7558 10.5098 19.7558 11.1314 19.1337L12.4408 17.8245C12.7519 17.5135 13.3665 17.2591 13.8064 17.2591H15.659C16.5396 17.2591 17.2591 16.5386 17.2591 15.659V13.8071C17.2591 13.3665 17.5137 12.7523 17.8245 12.4415L19.134 11.1323C19.7556 10.5103 19.7556 9.49147 19.134 8.86987ZM9.20011 7.60075C8.75803 7.60075 8.40019 7.95859 8.40019 8.40091C8.40019 8.84299 8.75803 9.20083 9.20011 9.20083H10.8002C12.125 9.20083 13.2 10.2758 13.2 11.6008H13.1992C13.1992 12.9259 12.1248 13.9991 10.8002 14.0008V15.6009H9.20011V14.0008C7.87507 14.0008 6.80011 12.9259 6.80011 11.6008H8.40019C8.40019 12.0429 8.75803 12.4007 9.20011 12.4007H10.7985C11.2411 12.4007 11.5987 12.0429 11.5987 11.6008H11.6001C11.6001 11.1585 11.2425 10.8007 10.8004 10.8007H9.20035C7.87531 10.8007 6.80035 9.72571 6.80035 8.40067C6.80035 7.07395 7.87531 6.00067 9.20035 6.00067V4.40059H10.8004V6.00067C12.1252 6.00067 13.2002 7.07563 13.2002 8.40067H11.6001C11.6001 7.95835 11.2425 7.60051 10.8004 7.60051H9.20011V7.59907V7.60075Z" fill="#A5A9B4"/>
</svg>
