<svg width="18" height="14" viewBox="0 0 18 14" fill="none" xmlns="http://www.w3.org/2000/svg">
<path d="M11.3497 0.550781C11.1842 0.847187 11.0367 1.1533 10.908 1.46745C9.64365 1.26749 8.35572 1.26749 7.09135 1.46745C6.96268 1.1533 6.81519 0.847187 6.64969 0.550781C5.45868 0.754282 4.30086 1.11873 3.20802 1.63411C1.2538 4.45435 0.367551 7.87824 0.70802 11.2924C1.98155 12.2498 3.4109 12.98 4.93302 13.4508C5.27961 12.9929 5.58894 12.5081 5.85802 12.0008C5.36141 11.8177 4.8841 11.586 4.43302 11.3091C4.55674 11.2268 4.67377 11.1348 4.78302 11.0341C6.0984 11.6677 7.53966 11.9967 8.99969 11.9967C10.4597 11.9967 11.901 11.6677 13.2164 11.0341C13.333 11.1341 13.4497 11.2258 13.5664 11.3091C13.1128 11.5838 12.636 11.8181 12.1414 12.0091C12.3993 12.5279 12.7003 13.0241 13.0414 13.4924C14.5616 13.0233 15.9884 12.2929 17.258 11.3341C17.6067 7.91928 16.7197 4.4926 14.758 1.67578C13.6775 1.14973 12.5311 0.77134 11.3497 0.550781ZM6.23302 9.34245C5.81601 9.31251 5.42681 9.12218 5.14712 8.81142C4.86743 8.50066 4.71902 8.09363 4.73302 7.67578C4.7169 7.25738 4.86459 6.84918 5.1447 6.53796C5.4248 6.22673 5.81524 6.03701 6.23302 6.00911C6.6508 6.03701 7.04124 6.22673 7.32134 6.53796C7.60145 6.84918 7.74914 7.25738 7.73302 7.67578C7.74914 8.09418 7.60145 8.50238 7.32134 8.81361C7.04124 9.12483 6.6508 9.31455 6.23302 9.34245ZM11.7664 9.34245C11.3493 9.31251 10.9601 9.12218 10.6805 8.81142C10.4008 8.50066 10.2523 8.09363 10.2664 7.67578C10.2502 7.25738 10.3979 6.84918 10.678 6.53796C10.9581 6.22673 11.3486 6.03701 11.7664 6.00911C12.1849 6.03493 12.5766 6.22403 12.8571 6.53574C13.1377 6.84744 13.2846 7.25682 13.2664 7.67578C13.2846 8.09474 13.1377 8.50412 12.8571 8.81582C12.5766 9.12753 12.1849 9.31664 11.7664 9.34245Z" fill="#F6F8FA"/>
</svg>
