<svg width="19" height="21" viewBox="0 0 19 21" fill="none" xmlns="http://www.w3.org/2000/svg">
<path d="M16.0996 11.3996L9.89961 17.5996C8.19961 19.2996 5.49961 19.2996 3.89961 17.5996C2.19961 15.8996 2.19961 13.1996 3.89961 11.5996L11.8996 3.59961C12.8996 2.69961 14.3996 2.69961 15.3996 3.59961C16.3996 4.59961 16.3996 6.19961 15.3996 7.09961L8.49961 13.9996C8.19961 14.2996 7.69961 14.2996 7.39961 13.9996C7.09961 13.6996 7.09961 13.1996 7.39961 12.8996L12.4996 7.79961C12.8996 7.39961 12.8996 6.79961 12.4996 6.39961C12.0996 5.99961 11.4996 5.99961 11.0996 6.39961L5.99961 11.5996C4.89961 12.6996 4.89961 14.3996 5.99961 15.4996C7.09961 16.4996 8.79961 16.4996 9.89961 15.4996L16.7996 8.59961C18.5996 6.79961 18.5996 3.99961 16.7996 2.19961C14.9996 0.399609 12.1996 0.399609 10.3996 2.19961L2.39961 10.1996C1.19961 11.3996 0.599609 12.9996 0.599609 14.5996C0.599609 18.0996 3.39961 20.7996 6.89961 20.7996C8.59961 20.7996 10.0996 20.0996 11.2996 18.9996L17.4996 12.7996C17.8996 12.3996 17.8996 11.7996 17.4996 11.3996C17.0996 10.9996 16.4996 10.9996 16.0996 11.3996Z" fill="#A5A9B4"/>
</svg>
