<?xml version="1.0" encoding="UTF-8" standalone="no"?>
<svg
   width="20"
   height="20"
   viewBox="0 0 20 20"
   fill="none"
   version="1.1"
   id="svg142"
   sodipodi:docname="star.svg"
   inkscape:version="1.2.2 (732a01da63, 2022-12-09)"
   xmlns:inkscape="http://www.inkscape.org/namespaces/inkscape"
   xmlns:sodipodi="http://sodipodi.sourceforge.net/DTD/sodipodi-0.dtd"
   xmlns="http://www.w3.org/2000/svg"
   xmlns:svg="http://www.w3.org/2000/svg">
  <defs
     id="defs146" />
  <sodipodi:namedview
     id="namedview144"
     pagecolor="#505050"
     bordercolor="#eeeeee"
     borderopacity="1"
     inkscape:showpageshadow="0"
     inkscape:pageopacity="0"
     inkscape:pagecheckerboard="0"
     inkscape:deskcolor="#505050"
     showgrid="false"
     inkscape:zoom="37.7"
     inkscape:cx="12.944297"
     inkscape:cy="10"
     inkscape:window-width="1920"
     inkscape:window-height="986"
     inkscape:window-x="-11"
     inkscape:window-y="1609"
     inkscape:window-maximized="1"
     inkscape:current-layer="svg142" />
  <path
     style="color:#000000;fill:#7a59ff;-inkscape-stroke:none"
     d="M 10.224609,2.28125 C 9.9342504,2.1391324 9.575575,2.2599294 9.4296875,2.5488281 c 0.00131,-0.00262 -0.00152,0.00246 -0.00586,0.011719 L 7.3203125,6.8261719 7.2636719,6.4335937 2.546875,7.1191406 h -0.00195 c -0.043471,0.00629 -0.07154,0.046728 -0.1132813,0.058594 l -0.00977,-0.019531 -0.3398437,0.1738281 0.00977,0.019531 c -0.033511,0.026377 -0.083332,0.026074 -0.1132813,0.056641 -0.1832283,0.1883572 -0.2847294,0.4423395 -0.28125,0.7050782 0.00348,0.2627406 0.1106904,0.5138313 0.2988281,0.6972656 l 3.2636719,3.1835941 -0.765625,4.474609 -0.00391,0.01953 0.3925781,0.07617 c -0.016534,0.106197 -0.0072,0.214884 0.033203,0.314453 0.041734,0.102852 0.1114067,0.192648 0.2011719,0.257813 0.089692,0.06489 0.196773,0.103499 0.3066406,0.111328 0.1096115,0.0078 0.2183935,-0.01493 0.3164063,-0.06641 h 0.00195 l 4.21875,-2.21875 4.2207035,2.21875 c 0.118049,0.06298 0.245483,0.08155 0.376953,0.05859 0.318353,-0.05488 0.539232,-0.36746 0.484375,-0.685547 l -0.002,-0.01367 -0.804688,-4.685547 3.390625,-3.3046877 0.002,-0.00195 0.01172,-0.013672 0.0098,-0.00781 0.002,-0.00195 C 17.744075,8.4349352 17.80384,8.31587 17.822266,8.1875 c 0.04919,-0.3185989 -0.180563,-0.6275535 -0.5,-0.6757813 l -4.71875,-0.6855468 -2.105469,-4.2695313 -0.002,-0.00586 C 10.438704,2.4340051 10.343263,2.3389481 10.226563,2.28125 Z m -0.2636715,0.9824219 1.9316405,3.9140625 0.185547,0.3730468 0.412109,0.060547 4.320313,0.6269532 -3.126953,3.0488277 -0.298828,0.291016 0.07031,0.412109 0.738281,4.302735 -3.863281,-2.03125 L 9.9609375,14.066406 9.59375,14.261719 5.7304687,16.292969 6.46875,11.990234 6.5390625,11.578125 6.2402344,11.287109 4.1835937,9.28125 3.2792969,8.2148438 7.4335937,7.6113281 7.8457031,7.5507812 8.03125,7.1777344 Z"
     id="path140" />
</svg>
